<svg width="55" height="53" viewBox="0 0 55 53" fill="none" xmlns="http://www.w3.org/2000/svg">
<path d="M30.2911 52.1699C30.7276 52.5016 31.2688 52.6588 31.81 52.6588C32.2116 52.6588 32.6306 52.5715 32.9972 52.3794C33.8702 51.9255 34.4289 51.0176 34.4289 50.0399V2.62169C34.4289 1.64399 33.8702 0.736131 32.9972 0.282201C32.1417 -0.15427 31.0768 -0.0844346 30.2911 0.491707L11.8546 13.6382H2.61883C1.16974 13.6382 0 14.8254 0 16.257V36.4046C0 37.8362 1.16974 39.0234 2.61883 39.0234H11.8546L30.2911 52.1699ZM53.3543 19.4468C52.8632 18.9564 52.1976 18.6809 51.5036 18.6809C50.8096 18.6809 50.144 18.9564 49.653 19.4468L46.472 22.6278L43.291 19.4468C43.0494 19.1967 42.7604 18.9971 42.4409 18.8599C42.1214 18.7226 41.7778 18.6504 41.43 18.6474C41.0823 18.6444 40.7375 18.7106 40.4156 18.8423C40.0938 18.974 39.8014 19.1684 39.5555 19.4143C39.3096 19.6602 39.1151 19.9526 38.9835 20.2745C38.8518 20.5963 38.7855 20.9411 38.7886 21.2889C38.7916 21.6366 38.8638 21.9802 39.0011 22.2997C39.1383 22.6193 39.3378 22.9082 39.5879 23.1498L42.769 26.3308L39.5879 29.5101C39.3336 29.7505 39.13 30.0396 38.9893 30.3601C38.8485 30.6806 38.7735 31.026 38.7685 31.376C38.7636 31.726 38.8288 32.0735 38.9605 32.3978C39.0921 32.7222 39.2874 33.0168 39.5349 33.2644C39.7823 33.512 40.0769 33.7074 40.4012 33.8392C40.7255 33.971 41.0729 34.0364 41.4229 34.0316C41.7729 34.0269 42.1184 33.9519 42.4389 33.8114C42.7595 33.6708 43.0486 33.4673 43.2892 33.2131L46.472 30.0338L49.6512 33.2131C50.1628 33.7246 50.8332 33.9813 51.5036 33.9813C52.174 33.9813 52.8445 33.7246 53.3543 33.2131C53.8447 32.7221 54.1201 32.0564 54.1201 31.3624C54.1201 30.6685 53.8447 30.0028 53.3543 29.5118L50.1767 26.3308L53.3577 23.1498C53.8482 22.6588 54.1236 21.9932 54.1236 21.2992C54.1236 20.6052 53.8482 19.9396 53.3577 19.4485L53.3543 19.4468Z" fill="white"/>
</svg>
