<svg width="42" height="36" viewBox="0 0 42 36" fill="none" xmlns="http://www.w3.org/2000/svg">
<path fill-rule="evenodd" clip-rule="evenodd" d="M22.6162 1.61589C22.6162 0.962437 22.2204 0.373603 21.6227 0.123207C21.3274 0.000908522 21.0025 -0.0310634 20.6891 0.0313369C20.3756 0.0937372 20.0877 0.247706 19.8618 0.473761L12.7296 7.60439C12.4226 7.90729 12.0107 8.07772 11.5826 8.07772H3.23067C2.37391 8.07815 1.55236 8.41869 0.946543 9.02451C0.340721 9.63033 0.000184323 10.4519 -0.000243736 11.3086V24.2323C-0.000456071 24.6567 0.0829692 25.0769 0.245263 25.469C0.407556 25.8611 0.645536 26.2173 0.945596 26.5174C1.24566 26.8174 1.60191 27.0554 1.994 27.2177C2.38609 27.38 2.80632 27.4634 3.23067 27.4632H11.5826C12.0107 27.4632 12.4226 27.6337 12.7296 27.9366L19.8618 35.0672C20.0877 35.2932 20.3756 35.4472 20.6891 35.5096C21.0025 35.572 21.3274 35.54 21.6227 35.4177C21.9167 35.2942 22.1677 35.0867 22.3445 34.8212C22.5212 34.5557 22.6157 34.244 22.6162 33.9251V1.61589ZM27.1403 3.52294C33.7733 4.87185 38.7708 10.7424 38.7708 17.7705C38.7708 24.7985 33.7733 30.6691 27.1403 32.018C26.7206 32.1038 26.3521 32.3527 26.1157 32.7099C25.8793 33.0672 25.7943 33.5036 25.8794 33.9234C25.9652 34.3431 26.2141 34.7116 26.5713 34.948C26.9286 35.1844 27.365 35.2694 27.7848 35.1843C35.892 33.5357 42.0017 26.3615 42.0017 17.7705C42.0017 9.17947 35.892 2.00522 27.7848 0.35664C27.365 0.271566 26.9286 0.356553 26.5713 0.592946C26.2141 0.829339 25.9652 1.19782 25.8794 1.61751C25.7943 2.03734 25.8793 2.47378 26.1157 2.83102C26.3521 3.18826 26.7206 3.43711 27.1403 3.52294Z" fill="white"/>
<path fill-rule="evenodd" clip-rule="evenodd" d="M28.1088 8.88601C27.8624 8.77834 27.5932 8.73371 27.3252 8.75613C27.0573 8.77855 26.7992 8.86732 26.5741 9.01444C26.1218 9.31249 25.8472 9.82056 25.8472 10.3658V25.1747C25.8472 25.7199 26.1218 26.228 26.5741 26.526C27.0345 26.8249 27.608 26.8733 28.1088 26.6544C31.5336 25.1577 33.9245 21.741 33.9245 17.7702C33.9245 13.7994 31.5336 10.3827 28.1088 8.88601Z" fill="white"/>
</svg>
