<svg width="33" height="45" viewBox="0 0 33 45" fill="none" xmlns="http://www.w3.org/2000/svg">
<path d="M20.2277 33.7491H11.79C11.4154 33.7491 11.0872 33.8906 10.8059 34.1713C10.5244 34.4528 10.3839 34.7806 10.3839 35.1557V43.5938C10.3839 43.9688 10.5249 44.2971 10.8059 44.5781C11.0872 44.8588 11.4151 45 11.79 45H20.2277C20.6023 45 20.9315 44.8591 21.2116 44.5781C21.4936 44.2971 21.6343 43.9688 21.6343 43.5938V35.1557C21.6343 34.7806 21.494 34.4528 21.2116 34.1713C20.9315 33.8898 20.6023 33.7491 20.2277 33.7491ZM31.3029 8.49053C30.3417 6.72004 29.0999 5.22662 27.576 4.00754C26.0532 2.78897 24.3411 1.8158 22.443 1.08953C20.5446 0.363505 18.658 0 16.7826 0C9.65789 0 4.22046 3.11725 0.470154 9.35188C0.28286 9.6564 0.218213 9.98444 0.276703 10.3361C0.335564 10.6873 0.517193 10.9804 0.821838 11.2147L6.58768 15.6097C6.89232 15.7968 7.18539 15.8905 7.46676 15.8905C7.88876 15.8905 8.25177 15.7028 8.55679 15.3278C10.244 13.2187 11.4982 11.871 12.3184 11.2848C13.3264 10.6053 14.5917 10.2657 16.1152 10.2657C17.5448 10.2657 18.8043 10.6408 19.8945 11.3902C20.9843 12.1404 21.5287 13.0076 21.5287 13.992C21.5287 15.0931 21.2362 15.9841 20.6501 16.6638C20.0643 17.3433 19.0796 17.9993 17.6965 18.6323C15.8689 19.4526 14.1923 20.7242 12.6696 22.4469C11.1458 24.1698 10.3844 26.0038 10.3844 27.949V29.531C10.3844 29.9767 10.5068 30.416 10.7533 30.8495C10.9996 31.2835 11.2982 31.5001 11.65 31.5001H20.0876C20.4627 31.5001 20.7905 31.3188 21.072 30.9543C21.3526 30.5921 21.4938 30.2111 21.4938 29.8132C21.4938 29.2274 21.8161 28.4414 22.4601 27.4576C23.1047 26.4732 23.9072 25.7107 24.869 25.1715C25.7825 24.656 26.4967 24.2406 27.0129 23.9237C27.5296 23.6078 28.2029 23.0969 29.0352 22.3942C29.8671 21.6909 30.5118 20.9935 30.9683 20.3023C31.4255 19.611 31.8359 18.7144 32.1991 17.6125C32.5631 16.511 32.7444 15.3273 32.7444 14.0618C32.7442 12.1165 32.2633 10.2592 31.3029 8.49053Z" fill="white"/>
</svg>
